<?xml version="1.0" encoding="UTF-8" standalone="no"?>
<!DOCTYPE svg PUBLIC "-//W3C//DTD SVG 1.1//EN"
 "http://www.w3.org/Graphics/SVG/1.1/DTD/svg11.dtd">
<!-- Generated by graphviz version 2.38.0 (20140413.2041)
 -->
<!-- Title: Ion Engine API Pages: 1 -->
<svg width="196pt" height="218pt"
 viewBox="0.00 0.00 196.00 218.00" xmlns="http://www.w3.org/2000/svg" xmlns:xlink="http://www.w3.org/1999/xlink">
<g id="graph0" class="graph" transform="scale(1 1) rotate(0) translate(4 214)">
<title>Ion Engine API</title>
<polygon fill="white" stroke="none" points="-4,4 -4,-214 192,-214 192,4 -4,4"/>
<!-- Node5 -->
<g id="node1" class="node"><title>Node5</title>
<g id="a_node1"><a xlink:href="../../d8/d92/group___t_e_r_r_a_i_n.html" target="_top" xlink:title="Creating and using Terrain objects from heightmaps. ">
<polygon fill="white" stroke="black" points="129.5,-190.5 129.5,-209.5 175.5,-209.5 175.5,-190.5 129.5,-190.5"/>
<text text-anchor="middle" x="152.5" y="-197.5" font-family="Helvetica,sans-Serif" font-size="10.00">Terrain</text>
</a>
</g>
</g>
<!-- Node2 -->
<g id="node2" class="node"><title>Node2</title>
<g id="a_node2"><a xlink:href="../../de/da1/group___c_a_m_e_r_a.html" target="_top" xlink:title="Creating and using the IonCamera class. ">
<polygon fill="white" stroke="black" points="119.5,-152.5 119.5,-171.5 185.5,-171.5 185.5,-152.5 119.5,-152.5"/>
<text text-anchor="middle" x="152.5" y="-159.5" font-family="Helvetica,sans-Serif" font-size="10.00">Ion Camera</text>
</a>
</g>
</g>
<!-- Node3 -->
<g id="node3" class="node"><title>Node3</title>
<g id="a_node3"><a xlink:href="../../d7/d2d/group___r_e_s_o_u_r_c_e_s.html" target="_top" xlink:title="Loading external resources into the game. ">
<polygon fill="white" stroke="black" points="121,-114.5 121,-133.5 184,-133.5 184,-114.5 121,-114.5"/>
<text text-anchor="middle" x="152.5" y="-121.5" font-family="Helvetica,sans-Serif" font-size="10.00">Resources</text>
</a>
</g>
</g>
<!-- Node0 -->
<g id="node4" class="node"><title>Node0</title>
<polygon fill="#bfbfbf" stroke="black" points="0,-95.5 0,-114.5 81,-114.5 81,-95.5 0,-95.5"/>
<text text-anchor="middle" x="40.5" y="-102.5" font-family="Helvetica,sans-Serif" font-size="10.00">Ion Engine API</text>
</g>
<!-- Node0&#45;&gt;Node5 -->
<g id="edge5" class="edge"><title>Node0&#45;&gt;Node5</title>
<path fill="none" stroke="black" d="M56.2661,-122.518C70.6627,-138.917 93.7314,-163.456 117,-181 121.586,-184.458 126.877,-187.692 131.917,-190.477"/>
<polygon fill="black" stroke="black" points="58.7569,-120.047 49.5729,-114.765 53.4581,-124.621 58.7569,-120.047"/>
</g>
<!-- Node0&#45;&gt;Node2 -->
<g id="edge2" class="edge"><title>Node0&#45;&gt;Node2</title>
<path fill="none" stroke="black" d="M69.1188,-119.312C89.1333,-129.683 115.642,-143.419 133.116,-152.474"/>
<polygon fill="black" stroke="black" points="70.6491,-116.163 60.16,-114.669 67.4285,-122.378 70.6491,-116.163"/>
</g>
<!-- Node0&#45;&gt;Node3 -->
<g id="edge3" class="edge"><title>Node0&#45;&gt;Node3</title>
<path fill="none" stroke="black" d="M91.18,-113.581C101.279,-115.325 111.619,-117.112 120.822,-118.701"/>
<polygon fill="black" stroke="black" points="91.6624,-110.113 81.2125,-111.859 90.4709,-117.011 91.6624,-110.113"/>
</g>
<!-- Node1 -->
<g id="node5" class="node"><title>Node1</title>
<g id="a_node5"><a xlink:href="../../dc/deb/group___g_a_m_e_o_b_j_e_c_t.html" target="_top" xlink:title="All game entities will be derived from GameObject. ">
<polygon fill="white" stroke="black" points="117,-76.5 117,-95.5 188,-95.5 188,-76.5 117,-76.5"/>
<text text-anchor="middle" x="152.5" y="-83.5" font-family="Helvetica,sans-Serif" font-size="10.00">GameObject</text>
</a>
</g>
</g>
<!-- Node0&#45;&gt;Node1 -->
<g id="edge1" class="edge"><title>Node0&#45;&gt;Node1</title>
<path fill="none" stroke="black" d="M91.2633,-96.4045C99.9383,-94.9061 108.789,-93.3774 116.941,-91.9694"/>
<polygon fill="black" stroke="black" points="90.4709,-92.9895 81.2125,-98.1406 91.6624,-99.8873 90.4709,-92.9895"/>
</g>
<!-- Node4 -->
<g id="node6" class="node"><title>Node4</title>
<g id="a_node6"><a xlink:href="../../df/d02/group___s_c_e_n_e.html" target="_top" xlink:title="A Scene is the space in which GameObjects exist. ">
<polygon fill="white" stroke="black" points="130.5,-38.5 130.5,-57.5 174.5,-57.5 174.5,-38.5 130.5,-38.5"/>
<text text-anchor="middle" x="152.5" y="-45.5" font-family="Helvetica,sans-Serif" font-size="10.00">Scene</text>
</a>
</g>
</g>
<!-- Node0&#45;&gt;Node4 -->
<g id="edge4" class="edge"><title>Node0&#45;&gt;Node4</title>
<path fill="none" stroke="black" d="M69.1188,-90.6884C89.1333,-80.3173 115.642,-66.581 133.116,-57.5265"/>
<polygon fill="black" stroke="black" points="67.4285,-87.6223 60.16,-95.3307 70.6491,-93.8374 67.4285,-87.6223"/>
</g>
<!-- Node6 -->
<g id="node7" class="node"><title>Node6</title>
<g id="a_node7"><a xlink:href="../../d1/ded/group___s_k_y-_b_o_x.html" target="_top" xlink:title="Creating and using SkyBox objects from cubemapped textures. ">
<polygon fill="white" stroke="black" points="127,-0.5 127,-19.5 178,-19.5 178,-0.5 127,-0.5"/>
<text text-anchor="middle" x="152.5" y="-7.5" font-family="Helvetica,sans-Serif" font-size="10.00">SkyBox</text>
</a>
</g>
</g>
<!-- Node0&#45;&gt;Node6 -->
<g id="edge6" class="edge"><title>Node0&#45;&gt;Node6</title>
<path fill="none" stroke="black" d="M56.2661,-87.4821C70.6627,-71.0832 93.7314,-46.5442 117,-29 121.586,-25.542 126.877,-22.3077 131.917,-19.5226"/>
<polygon fill="black" stroke="black" points="53.4581,-85.3787 49.5729,-95.2355 58.7569,-89.9529 53.4581,-85.3787"/>
</g>
</g>
</svg>
