<?xml version="1.0" encoding="UTF-8" standalone="no"?>
<!DOCTYPE svg PUBLIC "-//W3C//DTD SVG 1.1//EN"
 "http://www.w3.org/Graphics/SVG/1.1/DTD/svg11.dtd">
<!-- Generated by graphviz version 2.38.0 (20140413.2041)
 -->
<!-- Title: Ion Engine API Pages: 1 -->
<svg width="196pt" height="142pt"
 viewBox="0.00 0.00 196.00 142.00" xmlns="http://www.w3.org/2000/svg" xmlns:xlink="http://www.w3.org/1999/xlink">
<g id="graph0" class="graph" transform="scale(1 1) rotate(0) translate(4 138)">
<title>Ion Engine API</title>
<polygon fill="white" stroke="none" points="-4,4 -4,-138 192,-138 192,4 -4,4"/>
<!-- Node2 -->
<g id="node1" class="node"><title>Node2</title>
<g id="a_node1"><a xlink:href="../../de/da1/group___c_a_m_e_r_a.html" target="_top" xlink:title="Creating and using the IonCamera class. ">
<polygon fill="white" stroke="black" points="119.5,-114.5 119.5,-133.5 185.5,-133.5 185.5,-114.5 119.5,-114.5"/>
<text text-anchor="middle" x="152.5" y="-121.5" font-family="Helvetica,sans-Serif" font-size="10.00">Ion Camera</text>
</a>
</g>
</g>
<!-- Node3 -->
<g id="node2" class="node"><title>Node3</title>
<g id="a_node2"><a xlink:href="../../d7/d2d/group___r_e_s_o_u_r_c_e_s.html" target="_top" xlink:title="Loading external resources into the game. ">
<polygon fill="white" stroke="black" points="121,-76.5 121,-95.5 184,-95.5 184,-76.5 121,-76.5"/>
<text text-anchor="middle" x="152.5" y="-83.5" font-family="Helvetica,sans-Serif" font-size="10.00">Resources</text>
</a>
</g>
</g>
<!-- Node0 -->
<g id="node3" class="node"><title>Node0</title>
<polygon fill="#bfbfbf" stroke="black" points="0,-57.5 0,-76.5 81,-76.5 81,-57.5 0,-57.5"/>
<text text-anchor="middle" x="40.5" y="-64.5" font-family="Helvetica,sans-Serif" font-size="10.00">Ion Engine API</text>
</g>
<!-- Node0&#45;&gt;Node2 -->
<g id="edge2" class="edge"><title>Node0&#45;&gt;Node2</title>
<path fill="none" stroke="black" d="M69.1188,-81.3116C89.1333,-91.6827 115.642,-105.419 133.116,-114.474"/>
<polygon fill="black" stroke="black" points="70.6491,-78.1626 60.16,-76.6693 67.4285,-84.3777 70.6491,-78.1626"/>
</g>
<!-- Node0&#45;&gt;Node3 -->
<g id="edge3" class="edge"><title>Node0&#45;&gt;Node3</title>
<path fill="none" stroke="black" d="M91.18,-75.5811C101.279,-77.3255 111.619,-79.1115 120.822,-80.7011"/>
<polygon fill="black" stroke="black" points="91.6624,-72.1127 81.2125,-73.8594 90.4709,-79.0105 91.6624,-72.1127"/>
</g>
<!-- Node1 -->
<g id="node4" class="node"><title>Node1</title>
<g id="a_node4"><a xlink:href="../../dc/deb/group___g_a_m_e_o_b_j_e_c_t.html" target="_top" xlink:title="All game entities will be derived from GameObject. ">
<polygon fill="white" stroke="black" points="117,-38.5 117,-57.5 188,-57.5 188,-38.5 117,-38.5"/>
<text text-anchor="middle" x="152.5" y="-45.5" font-family="Helvetica,sans-Serif" font-size="10.00">GameObject</text>
</a>
</g>
</g>
<!-- Node0&#45;&gt;Node1 -->
<g id="edge1" class="edge"><title>Node0&#45;&gt;Node1</title>
<path fill="none" stroke="black" d="M91.2633,-58.4045C99.9383,-56.9061 108.789,-55.3774 116.941,-53.9694"/>
<polygon fill="black" stroke="black" points="90.4709,-54.9895 81.2125,-60.1406 91.6624,-61.8873 90.4709,-54.9895"/>
</g>
<!-- Node4 -->
<g id="node5" class="node"><title>Node4</title>
<g id="a_node5"><a xlink:href="../../df/d02/group___s_c_e_n_e.html" target="_top" xlink:title="A Scene is the space in which GameObjects exist. ">
<polygon fill="white" stroke="black" points="130.5,-0.5 130.5,-19.5 174.5,-19.5 174.5,-0.5 130.5,-0.5"/>
<text text-anchor="middle" x="152.5" y="-7.5" font-family="Helvetica,sans-Serif" font-size="10.00">Scene</text>
</a>
</g>
</g>
<!-- Node0&#45;&gt;Node4 -->
<g id="edge4" class="edge"><title>Node0&#45;&gt;Node4</title>
<path fill="none" stroke="black" d="M69.1188,-52.6884C89.1333,-42.3173 115.642,-28.581 133.116,-19.5265"/>
<polygon fill="black" stroke="black" points="67.4285,-49.6223 60.16,-57.3307 70.6491,-55.8374 67.4285,-49.6223"/>
</g>
</g>
</svg>
