<?xml version="1.0" encoding="UTF-8" standalone="no"?>
<!DOCTYPE svg PUBLIC "-//W3C//DTD SVG 1.1//EN"
 "http://www.w3.org/Graphics/SVG/1.1/DTD/svg11.dtd">
<!-- Generated by graphviz version 2.38.0 (20140413.2041)
 -->
<!-- Title: TerrainAssets Pages: 1 -->
<svg width="176pt" height="165pt"
 viewBox="0.00 0.00 176.00 165.00" xmlns="http://www.w3.org/2000/svg" xmlns:xlink="http://www.w3.org/1999/xlink">
<g id="graph0" class="graph" transform="scale(1 1) rotate(0) translate(4 161)">
<title>TerrainAssets</title>
<polygon fill="white" stroke="none" points="-4,4 -4,-161 172,-161 172,4 -4,4"/>
<!-- Node1 -->
<g id="node1" class="node"><title>Node1</title>
<polygon fill="#bfbfbf" stroke="black" points="0,-0.5 0,-156.5 95,-156.5 95,-0.5 0,-0.5"/>
<text text-anchor="middle" x="47.5" y="-144.5" font-family="Helvetica,sans-Serif" font-size="10.00">TerrainAssets</text>
<polyline fill="none" stroke="black" points="0,-137.5 95,-137.5 "/>
<text text-anchor="start" x="8" y="-125.5" font-family="Helvetica,sans-Serif" font-size="10.00">&#45; TerrainMap</text>
<polyline fill="none" stroke="black" points="0,-118.5 95,-118.5 "/>
<text text-anchor="start" x="8" y="-106.5" font-family="Helvetica,sans-Serif" font-size="10.00">+ Load()</text>
<text text-anchor="start" x="8" y="-95.5" font-family="Helvetica,sans-Serif" font-size="10.00">+ Get()</text>
<text text-anchor="start" x="8" y="-84.5" font-family="Helvetica,sans-Serif" font-size="10.00">&#45; TerrainAssets()</text>
<text text-anchor="start" x="8" y="-73.5" font-family="Helvetica,sans-Serif" font-size="10.00">&#45; TerrainAssets()</text>
<text text-anchor="start" x="8" y="-62.5" font-family="Helvetica,sans-Serif" font-size="10.00">&#45; operator=()</text>
<text text-anchor="start" x="8" y="-51.5" font-family="Helvetica,sans-Serif" font-size="10.00">&#45; ~TerrainAssets()</text>
<text text-anchor="start" x="8" y="-40.5" font-family="Helvetica,sans-Serif" font-size="10.00">&#45; privLoad()</text>
<text text-anchor="start" x="8" y="-29.5" font-family="Helvetica,sans-Serif" font-size="10.00">&#45; privGet()</text>
<text text-anchor="start" x="8" y="-18.5" font-family="Helvetica,sans-Serif" font-size="10.00">&#45; Instance()</text>
<text text-anchor="start" x="8" y="-7.5" font-family="Helvetica,sans-Serif" font-size="10.00">&#45; Delete()</text>
</g>
<!-- Node1&#45;&gt;Node1 -->
<g id="edge1" class="edge"><title>Node1&#45;&gt;Node1</title>
<path fill="none" stroke="#404040" d="M95.1902,-106.886C105.513,-104.11 113,-94.6484 113,-78.5 113,-68.6595 110.22,-61.302 105.712,-56.4274"/>
<polygon fill="none" stroke="#404040" points="105.48,-56.2883 98.277,-56.6311 95.1902,-50.1141 102.393,-49.7712 105.48,-56.2883"/>
<text text-anchor="middle" x="140.5" y="-76" font-family="Helvetica,sans-Serif" font-size="10.00"> &#45;ptrInstance</text>
</g>
</g>
</svg>
