<?xml version="1.0" encoding="UTF-8" standalone="no"?>
<!DOCTYPE svg PUBLIC "-//W3C//DTD SVG 1.1//EN"
 "http://www.w3.org/Graphics/SVG/1.1/DTD/svg11.dtd">
<!-- Generated by graphviz version 2.38.0 (20140413.2041)
 -->
<!-- Title: Terrain Pages: 1 -->
<svg width="332pt" height="29pt"
 viewBox="0.00 0.00 332.00 29.00" xmlns="http://www.w3.org/2000/svg" xmlns:xlink="http://www.w3.org/1999/xlink">
<g id="graph0" class="graph" transform="scale(1 1) rotate(0) translate(4 25)">
<title>Terrain</title>
<polygon fill="white" stroke="none" points="-4,4 -4,-25 328,-25 328,4 -4,4"/>
<!-- Node0 -->
<g id="node1" class="node"><title>Node0</title>
<polygon fill="#bfbfbf" stroke="black" points="118,-0.5 118,-19.5 164,-19.5 164,-0.5 118,-0.5"/>
<text text-anchor="middle" x="141" y="-7.5" font-family="Helvetica,sans-Serif" font-size="10.00">Terrain</text>
</g>
<!-- Node2 -->
<g id="node2" class="node"><title>Node2</title>
<g id="a_node2"><a xlink:href="../../d7/d2d/group___r_e_s_o_u_r_c_e_s.html" target="_top" xlink:title="Loading external resources into the game. ">
<polygon fill="white" stroke="black" points="261,-0.5 261,-19.5 324,-19.5 324,-0.5 261,-0.5"/>
<text text-anchor="middle" x="292.5" y="-7.5" font-family="Helvetica,sans-Serif" font-size="10.00">Resources</text>
</a>
</g>
</g>
<!-- Node0&#45;&gt;Node2 -->
<g id="edge2" class="edge"><title>Node0&#45;&gt;Node2</title>
<path fill="none" stroke="orange" stroke-dasharray="5,2" d="M164.059,-10C189.644,-10 231.986,-10 260.781,-10"/>
<text text-anchor="middle" x="212.5" y="-13" font-family="Helvetica,sans-Serif" font-size="10.00">TerrainAssets</text>
</g>
<!-- Node1 -->
<g id="node3" class="node"><title>Node1</title>
<g id="a_node3"><a xlink:href="../../db/d9e/group___i_o_n-_a_p_i.html" target="_top" xlink:title="Classes and functions avalible to Ion Engine Users. ">
<polygon fill="white" stroke="black" points="0,-0.5 0,-19.5 81,-19.5 81,-0.5 0,-0.5"/>
<text text-anchor="middle" x="40.5" y="-7.5" font-family="Helvetica,sans-Serif" font-size="10.00">Ion Engine API</text>
</a>
</g>
</g>
<!-- Node1&#45;&gt;Node0 -->
<g id="edge1" class="edge"><title>Node1&#45;&gt;Node0</title>
<path fill="none" stroke="black" d="M91.3515,-10C100.681,-10 109.982,-10 117.915,-10"/>
<polygon fill="black" stroke="black" points="91.2798,-6.5001 81.2798,-10 91.2798,-13.5001 91.2798,-6.5001"/>
</g>
</g>
</svg>
