<?xml version="1.0" encoding="UTF-8" standalone="no"?>
<!DOCTYPE svg PUBLIC "-//W3C//DTD SVG 1.1//EN"
 "http://www.w3.org/Graphics/SVG/1.1/DTD/svg11.dtd">
<!-- Generated by graphviz version 2.38.0 (20140413.2041)
 -->
<!-- Title: Resources Pages: 1 -->
<svg width="342pt" height="66pt"
 viewBox="0.00 0.00 342.00 66.00" xmlns="http://www.w3.org/2000/svg" xmlns:xlink="http://www.w3.org/1999/xlink">
<g id="graph0" class="graph" transform="scale(1 1) rotate(0) translate(4 62)">
<title>Resources</title>
<polygon fill="white" stroke="none" points="-4,4 -4,-62 338,-62 338,4 -4,4"/>
<!-- Node3 -->
<g id="node1" class="node"><title>Node3</title>
<g id="a_node1"><a xlink:href="../../d8/d92/group___t_e_r_r_a_i_n.html" target="_top" xlink:title="Creating and using Terrain objects from heightmaps. ">
<polygon fill="white" stroke="black" points="285.5,-38.5 285.5,-57.5 331.5,-57.5 331.5,-38.5 285.5,-38.5"/>
<text text-anchor="middle" x="308.5" y="-45.5" font-family="Helvetica,sans-Serif" font-size="10.00">Terrain</text>
</a>
</g>
</g>
<!-- Node1 -->
<g id="node2" class="node"><title>Node1</title>
<g id="a_node2"><a xlink:href="../../db/d9e/group___i_o_n-_a_p_i.html" target="_top" xlink:title="Classes and functions avalible to Ion Engine Users. ">
<polygon fill="white" stroke="black" points="0,-19.5 0,-38.5 81,-38.5 81,-19.5 0,-19.5"/>
<text text-anchor="middle" x="40.5" y="-26.5" font-family="Helvetica,sans-Serif" font-size="10.00">Ion Engine API</text>
</a>
</g>
</g>
<!-- Node0 -->
<g id="node3" class="node"><title>Node0</title>
<polygon fill="#bfbfbf" stroke="black" points="118,-19.5 118,-38.5 181,-38.5 181,-19.5 118,-19.5"/>
<text text-anchor="middle" x="149.5" y="-26.5" font-family="Helvetica,sans-Serif" font-size="10.00">Resources</text>
</g>
<!-- Node1&#45;&gt;Node0 -->
<g id="edge1" class="edge"><title>Node1&#45;&gt;Node0</title>
<path fill="none" stroke="black" d="M91.1764,-29C100.261,-29 109.493,-29 117.818,-29"/>
<polygon fill="black" stroke="black" points="91.0389,-25.5001 81.0388,-29 91.0388,-32.5001 91.0389,-25.5001"/>
</g>
<!-- Node0&#45;&gt;Node3 -->
<g id="edge3" class="edge"><title>Node0&#45;&gt;Node3</title>
<path fill="none" stroke="orange" stroke-dasharray="5,2" d="M181.144,-32.7085C211.663,-36.4019 257.789,-41.984 285.054,-45.2836"/>
<text text-anchor="middle" x="232" y="-45" font-family="Helvetica,sans-Serif" font-size="10.00">TerrainAssets</text>
</g>
<!-- Node2 -->
<g id="node4" class="node"><title>Node2</title>
<g id="a_node4"><a xlink:href="../../d1/ded/group___s_k_y-_b_o_x.html" target="_top" xlink:title="Creating and using SkyBox objects from cubemapped textures. ">
<polygon fill="white" stroke="black" points="283,-0.5 283,-19.5 334,-19.5 334,-0.5 283,-0.5"/>
<text text-anchor="middle" x="308.5" y="-7.5" font-family="Helvetica,sans-Serif" font-size="10.00">SkyBox</text>
</a>
</g>
</g>
<!-- Node0&#45;&gt;Node2 -->
<g id="edge2" class="edge"><title>Node0&#45;&gt;Node2</title>
<path fill="none" stroke="orange" stroke-dasharray="5,2" d="M179.483,-19.4341C185.849,-17.6711 192.601,-16.0559 199,-15 227.466,-10.3029 260.662,-9.4343 282.766,-9.49576"/>
<text text-anchor="middle" x="232" y="-18" font-family="Helvetica,sans-Serif" font-size="10.00">SkyBoxAssets</text>
</g>
</g>
</svg>
