<?xml version="1.0" encoding="UTF-8" standalone="no"?>
<!DOCTYPE svg PUBLIC "-//W3C//DTD SVG 1.1//EN"
 "http://www.w3.org/Graphics/SVG/1.1/DTD/svg11.dtd">
<!-- Generated by graphviz version 2.38.0 (20140413.2041)
 -->
<!-- Title: GameObject Pages: 1 -->
<svg width="336pt" height="230pt"
 viewBox="0.00 0.00 336.00 230.00" xmlns="http://www.w3.org/2000/svg" xmlns:xlink="http://www.w3.org/1999/xlink">
<g id="graph0" class="graph" transform="scale(1 1) rotate(0) translate(4 226)">
<title>GameObject</title>
<polygon fill="white" stroke="none" points="-4,4 -4,-226 332,-226 332,4 -4,4"/>
<!-- Node6 -->
<g id="node1" class="node"><title>Node6</title>
<g id="a_node1"><a xlink:href="../../dc/d38/group___a_l_a_r_m-_e_v_e_n_t_s.html" target="_top" xlink:title="Callbacks and set up for classes derived from Alarmable. ">
<polygon fill="white" stroke="black" points="239.5,-202.5 239.5,-221.5 312.5,-221.5 312.5,-202.5 239.5,-202.5"/>
<text text-anchor="middle" x="276" y="-209.5" font-family="Helvetica,sans-Serif" font-size="10.00">Alarm events</text>
</a>
</g>
</g>
<!-- Node3 -->
<g id="node2" class="node"><title>Node3</title>
<g id="a_node2"><a xlink:href="../../da/dfc/group___u_p_d_a_t_e-_e_v_e_n_t_s.html" target="_top" xlink:title="Callbacks and set up for classes derived from Updatable. ">
<polygon fill="white" stroke="black" points="235.5,-164.5 235.5,-183.5 316.5,-183.5 316.5,-164.5 235.5,-164.5"/>
<text text-anchor="middle" x="276" y="-171.5" font-family="Helvetica,sans-Serif" font-size="10.00">Update events.</text>
</a>
</g>
</g>
<!-- Node1 -->
<g id="node3" class="node"><title>Node1</title>
<g id="a_node3"><a xlink:href="../../db/d9e/group___i_o_n-_a_p_i.html" target="_top" xlink:title="Classes and functions avalible to Ion Engine Users. ">
<polygon fill="white" stroke="black" points="0,-107.5 0,-126.5 81,-126.5 81,-107.5 0,-107.5"/>
<text text-anchor="middle" x="40.5" y="-114.5" font-family="Helvetica,sans-Serif" font-size="10.00">Ion Engine API</text>
</a>
</g>
</g>
<!-- Node0 -->
<g id="node4" class="node"><title>Node0</title>
<polygon fill="#bfbfbf" stroke="black" points="117,-107.5 117,-126.5 188,-126.5 188,-107.5 117,-107.5"/>
<text text-anchor="middle" x="152.5" y="-114.5" font-family="Helvetica,sans-Serif" font-size="10.00">GameObject</text>
</g>
<!-- Node1&#45;&gt;Node0 -->
<g id="edge1" class="edge"><title>Node1&#45;&gt;Node0</title>
<path fill="none" stroke="black" d="M91.2633,-117C99.9383,-117 108.789,-117 116.941,-117"/>
<polygon fill="black" stroke="black" points="91.2126,-113.5 81.2125,-117 91.2125,-120.5 91.2126,-113.5"/>
</g>
<!-- Node0&#45;&gt;Node6 -->
<g id="edge6" class="edge"><title>Node0&#45;&gt;Node6</title>
<path fill="none" stroke="black" d="M166.248,-135.003C179.111,-152.012 200.401,-177.207 224,-193 229.575,-196.731 235.981,-199.854 242.327,-202.419"/>
<polygon fill="black" stroke="black" points="168.749,-132.495 160.008,-126.508 163.107,-136.639 168.749,-132.495"/>
</g>
<!-- Node0&#45;&gt;Node3 -->
<g id="edge3" class="edge"><title>Node0&#45;&gt;Node3</title>
<path fill="none" stroke="black" d="M178.688,-131.67C191.949,-139.112 208.612,-148.026 224,-155 231.401,-158.354 239.585,-161.599 247.191,-164.429"/>
<polygon fill="black" stroke="black" points="180.123,-128.46 169.7,-126.56 176.663,-134.545 180.123,-128.46"/>
</g>
<!-- Node5 -->
<g id="node5" class="node"><title>Node5</title>
<g id="a_node5"><a xlink:href="../../d3/d66/group___i_n_p_u_t-_e_v_e_n_t_s.html" target="_top" xlink:title="Callbacks and set up for classes derived from Inputable. ">
<polygon fill="white" stroke="black" points="240.5,-126.5 240.5,-145.5 311.5,-145.5 311.5,-126.5 240.5,-126.5"/>
<text text-anchor="middle" x="276" y="-133.5" font-family="Helvetica,sans-Serif" font-size="10.00">Input events.</text>
</a>
</g>
</g>
<!-- Node0&#45;&gt;Node5 -->
<g id="edge5" class="edge"><title>Node0&#45;&gt;Node5</title>
<path fill="none" stroke="black" d="M198.558,-124.046C212.31,-126.197 227.213,-128.527 240.178,-130.555"/>
<polygon fill="black" stroke="black" points="198.738,-120.532 188.317,-122.445 197.656,-127.448 198.738,-120.532"/>
</g>
<!-- Node4 -->
<g id="node6" class="node"><title>Node4</title>
<g id="a_node6"><a xlink:href="../../d0/d9b/group___d_r_a_w-_e_v_e_n_t_s.html" target="_top" xlink:title="Callbacks and set up for classes derived from Drawable. ">
<polygon fill="white" stroke="black" points="240,-88.5 240,-107.5 312,-107.5 312,-88.5 240,-88.5"/>
<text text-anchor="middle" x="276" y="-95.5" font-family="Helvetica,sans-Serif" font-size="10.00">Draw events.</text>
</a>
</g>
</g>
<!-- Node0&#45;&gt;Node4 -->
<g id="edge4" class="edge"><title>Node0&#45;&gt;Node4</title>
<path fill="none" stroke="black" d="M198.467,-109.968C212.095,-107.837 226.862,-105.528 239.756,-103.511"/>
<polygon fill="black" stroke="black" points="197.656,-106.552 188.317,-111.555 198.738,-113.468 197.656,-106.552"/>
</g>
<!-- Node2 -->
<g id="node7" class="node"><title>Node2</title>
<g id="a_node7"><a xlink:href="../../de/daa/group___d_e_f_a_u_l_t-_e_v_e_n_t_s.html" target="_top" xlink:title="Events that all GameObjects are registered to receive. ">
<polygon fill="white" stroke="black" points="224,-39 224,-69 328,-69 328,-39 224,-39"/>
<text text-anchor="start" x="232" y="-57" font-family="Helvetica,sans-Serif" font-size="10.00">Default GameObject</text>
<text text-anchor="middle" x="276" y="-46" font-family="Helvetica,sans-Serif" font-size="10.00"> Events</text>
</a>
</g>
</g>
<!-- Node0&#45;&gt;Node2 -->
<g id="edge2" class="edge"><title>Node0&#45;&gt;Node2</title>
<path fill="none" stroke="black" d="M179.789,-102.519C192.992,-95.3252 209.275,-86.5742 224,-79 230.401,-75.7075 237.299,-72.2599 243.889,-69.0134"/>
<polygon fill="black" stroke="black" points="177.879,-99.5738 170.785,-107.443 181.238,-105.715 177.879,-99.5738"/>
</g>
<!-- Node7 -->
<g id="node8" class="node"><title>Node7</title>
<g id="a_node8"><a xlink:href="../../d2/d0e/group___c_o_l_l_i_s_i_o_n-_e_v_e_n_t_s.html" target="_top" xlink:title="Callbacks and set up for classes derived from Collidable. ">
<polygon fill="white" stroke="black" points="234,-0.5 234,-19.5 318,-19.5 318,-0.5 234,-0.5"/>
<text text-anchor="middle" x="276" y="-7.5" font-family="Helvetica,sans-Serif" font-size="10.00">Collision events</text>
</a>
</g>
</g>
<!-- Node0&#45;&gt;Node7 -->
<g id="edge7" class="edge"><title>Node0&#45;&gt;Node7</title>
<path fill="none" stroke="black" d="M163.969,-98.7207C176.104,-79.0114 197.824,-47.9248 224,-29 229.207,-25.2355 235.246,-22.1304 241.308,-19.5999"/>
<polygon fill="black" stroke="black" points="160.921,-96.9978 158.805,-107.379 166.933,-100.584 160.921,-96.9978"/>
</g>
</g>
</svg>
