<?xml version="1.0" encoding="UTF-8" standalone="no"?>
<!DOCTYPE svg PUBLIC "-//W3C//DTD SVG 1.1//EN"
 "http://www.w3.org/Graphics/SVG/1.1/DTD/svg11.dtd">
<!-- Generated by graphviz version 2.38.0 (20140413.2041)
 -->
<!-- Title: ShaderAssets Pages: 1 -->
<svg width="177pt" height="176pt"
 viewBox="0.00 0.00 177.00 176.00" xmlns="http://www.w3.org/2000/svg" xmlns:xlink="http://www.w3.org/1999/xlink">
<g id="graph0" class="graph" transform="scale(1 1) rotate(0) translate(4 172)">
<title>ShaderAssets</title>
<polygon fill="white" stroke="none" points="-4,4 -4,-172 173,-172 173,4 -4,4"/>
<!-- Node1 -->
<g id="node1" class="node"><title>Node1</title>
<polygon fill="#bfbfbf" stroke="black" points="0,-0.5 0,-167.5 96,-167.5 96,-0.5 0,-0.5"/>
<text text-anchor="middle" x="48" y="-155.5" font-family="Helvetica,sans-Serif" font-size="10.00">ShaderAssets</text>
<polyline fill="none" stroke="black" points="0,-148.5 96,-148.5 "/>
<text text-anchor="start" x="8" y="-136.5" font-family="Helvetica,sans-Serif" font-size="10.00">&#45; ShaderMap</text>
<polyline fill="none" stroke="black" points="0,-129.5 96,-129.5 "/>
<text text-anchor="start" x="8" y="-117.5" font-family="Helvetica,sans-Serif" font-size="10.00">+ Load()</text>
<text text-anchor="start" x="8" y="-106.5" font-family="Helvetica,sans-Serif" font-size="10.00">+ Get()</text>
<text text-anchor="start" x="8" y="-95.5" font-family="Helvetica,sans-Serif" font-size="10.00">&#45; ShaderAssets()</text>
<text text-anchor="start" x="8" y="-84.5" font-family="Helvetica,sans-Serif" font-size="10.00">&#45; ShaderAssets()</text>
<text text-anchor="start" x="8" y="-73.5" font-family="Helvetica,sans-Serif" font-size="10.00">&#45; operator=()</text>
<text text-anchor="start" x="8" y="-62.5" font-family="Helvetica,sans-Serif" font-size="10.00">&#45; ~ShaderAssets()</text>
<text text-anchor="start" x="8" y="-51.5" font-family="Helvetica,sans-Serif" font-size="10.00">&#45; privLoad()</text>
<text text-anchor="start" x="8" y="-40.5" font-family="Helvetica,sans-Serif" font-size="10.00">&#45; privGet()</text>
<text text-anchor="start" x="8" y="-29.5" font-family="Helvetica,sans-Serif" font-size="10.00">&#45; Instance()</text>
<text text-anchor="start" x="8" y="-18.5" font-family="Helvetica,sans-Serif" font-size="10.00">&#45; Delete()</text>
<text text-anchor="start" x="8" y="-7.5" font-family="Helvetica,sans-Serif" font-size="10.00">&#45; LoadDefault()</text>
</g>
<!-- Node1&#45;&gt;Node1 -->
<g id="edge1" class="edge"><title>Node1&#45;&gt;Node1</title>
<path fill="none" stroke="#404040" d="M96.0542,-114.569C106.456,-111.58 114,-101.391 114,-84 114,-73.1309 111.053,-65.0745 106.304,-59.831"/>
<polygon fill="none" stroke="#404040" points="106.233,-59.7867 99.0247,-60.0014 96.0542,-53.4305 103.262,-53.2158 106.233,-59.7867"/>
<text text-anchor="middle" x="141.5" y="-81.5" font-family="Helvetica,sans-Serif" font-size="10.00"> &#45;ptrInstance</text>
</g>
</g>
</svg>
